<svg xmlns="http://www.w3.org/2000/svg" viewBox="0 0 138.89 138.89">
    <defs>
        <style>
            .cls-1,
            .cls-2 {
                fill: none;
                stroke-miterlimit: 10;
                stroke-width: 6px;
            }

            .cls-1 {
                stroke: #878787;
            }

            .cls-2 {
                stroke: #b2b2b2;
            }
        </style>
    </defs>
    <g>
        <path class="cls-1"
            d="M135.89,101.74v26.64a7.51,7.51,0,0,1-7.51,7.51H10.51A7.51,7.51,0,0,1,3,128.38V10.51A7.51,7.51,0,0,1,10.51,3H128.38a7.51,7.51,0,0,1,7.51,7.51V52.07" />
        <path class="cls-2"
            d="M122.6,101.52v12.24a7.51,7.51,0,0,1-7.51,7.51H23.8a7.51,7.51,0,0,1-7.51-7.51V22.47A7.51,7.51,0,0,1,23.8,15h91.29a7.51,7.51,0,0,1,7.51,7.51l.14,31.27" />
    </g>
</svg>