<svg xmlns="http://www.w3.org/2000/svg" viewBox="0 0 601.84 139.43"><defs><style>.cls-1,.cls-2{fill:none;stroke-miterlimit:10;stroke-width:6px;}.cls-1{stroke:#878787;}.cls-2{stroke:#b2b2b2;}.cls-3{font-size:107.64px;fill:#551113;font-family:Hack-Regular, Hack;letter-spacing:-0.06em;}.cls-4{letter-spacing:-0.08em;}.cls-5{letter-spacing:-0.09em;}.cls-6{letter-spacing:-0.09em;}.cls-7{letter-spacing:-0.08em;}.cls-8{letter-spacing:-0.07em;}.cls-9{letter-spacing:-0.08em;}.cls-10{letter-spacing:-0.1em;}.cls-11{letter-spacing:-0.08em;}.cls-12{letter-spacing:-0.05em;}</style></defs><g id="Ebene_2" data-name="Ebene 2"><g id="Ebene_1-2" data-name="Ebene 1"><path class="cls-1" d="M135.89,101.74v26.64a7.51,7.51,0,0,1-7.51,7.51H10.51A7.51,7.51,0,0,1,3,128.38V10.51A7.51,7.51,0,0,1,10.51,3H128.38a7.51,7.51,0,0,1,7.51,7.51V52.07"/><path class="cls-2" d="M122.6,101.52v12.24a7.51,7.51,0,0,1-7.51,7.51H23.8a7.51,7.51,0,0,1-7.51-7.51V22.47A7.51,7.51,0,0,1,23.8,15h91.29a7.51,7.51,0,0,1,7.51,7.51l.14,31.27"/><text class="cls-3" transform="translate(37.45 107.63)">M<tspan class="cls-4" x="58.35" y="0">a</tspan><tspan class="cls-5" x="114.26" y="0">k</tspan><tspan class="cls-6" x="169.15" y="0">r</tspan><tspan class="cls-7" x="224.57" y="0">o</tspan><tspan class="cls-8" x="281.2" y="0">B</tspan><tspan class="cls-9" x="338.74" y="0">o</tspan><tspan class="cls-10" x="395.35" y="0">a</tspan><tspan class="cls-11" x="449.07" y="0">r</tspan><tspan class="cls-12" x="504.97" y="0">d</tspan></text></g></g></svg>