<svg xmlns="http://www.w3.org/2000/svg" viewBox="0 0 138.89 139.43"><defs><style>.cls-1,.cls-2{fill:none;stroke-miterlimit:10;stroke-width:6px;}.cls-1{stroke:#878787;}.cls-2{stroke:#b2b2b2;}.cls-3{font-size:107.64px;fill:#551113;font-family:Hack-Regular, Hack;letter-spacing:-0.05em;}</style></defs><g id="Ebene_2" data-name="Ebene 2"><g id="Ebene_1-2" data-name="Ebene 1"><path class="cls-1" d="M135.89,49.68v78.7a7.51,7.51,0,0,1-7.51,7.51H10.51A7.51,7.51,0,0,1,3,128.38V10.51A7.51,7.51,0,0,1,10.51,3H128.38a7.51,7.51,0,0,1,7.51,7.51V52.07"/><path class="cls-2" d="M122.74,52.91l-.14,60.85a7.51,7.51,0,0,1-7.51,7.51H23.8a7.51,7.51,0,0,1-7.51-7.51V22.47A7.51,7.51,0,0,1,23.8,15h91.29a7.51,7.51,0,0,1,7.51,7.51l.14,31.27"/><text class="cls-3" transform="translate(37.45 107.63)">M</text></g></g></svg>